<svg xmlns="http://www.w3.org/2000/svg" viewBox="0 0 481.89 646.3"><defs><style>.cls-1{fill:#fff;}.cls-2{fill:#9697a1;}.cls-3{fill:none;stroke:#1d1d1b;stroke-miterlimit:10;stroke-width:2px;}.cls-4{fill:#ea5328;}</style></defs><g id="Layer_2" data-name="Layer 2"><g id="Layer_1-2" data-name="Layer 1"><rect class="cls-1" width="481.89" height="646.3"/><rect class="cls-2" x="70.87" y="317.48" width="340.16" height="2.83"/><rect class="cls-2" x="70.87" y="260.79" width="340.16" height="2.83"/><rect class="cls-3" x="28.35" y="28.35" width="425.2" height="306.14"/><rect class="cls-2" x="70.96" y="79.37" width="42.52" height="25.51"/><rect class="cls-2" x="127.56" y="79.37" width="283.46" height="2.83"/><rect class="cls-2" x="127.56" y="90.71" width="283.46" height="2.83"/><rect class="cls-2" x="127.56" y="102.05" width="283.46" height="2.83"/><rect class="cls-2" x="70.87" y="113.39" width="340.16" height="2.83"/><rect class="cls-2" x="70.87" y="124.72" width="340.16" height="2.83"/><rect class="cls-2" x="70.96" y="442.2" width="42.52" height="25.51"/><rect class="cls-2" x="127.56" y="442.2" width="283.46" height="2.83"/><rect class="cls-2" x="127.56" y="453.54" width="283.46" height="2.83"/><rect class="cls-2" x="127.56" y="464.88" width="283.46" height="2.83"/><rect class="cls-2" x="70.96" y="272.13" width="42.52" height="25.51"/><rect class="cls-2" x="127.56" y="272.13" width="283.46" height="2.83"/><rect class="cls-2" x="127.56" y="283.46" width="283.46" height="2.83"/><rect class="cls-2" x="127.56" y="294.8" width="283.46" height="2.83"/><rect class="cls-2" x="70.87" y="306.14" width="340.16" height="2.83"/><rect class="cls-2" x="368.46" y="170.08" width="42.52" height="25.51" transform="translate(779.43 365.67) rotate(-180)"/><rect class="cls-2" x="70.91" y="170.08" width="283.46" height="2.83" transform="translate(425.29 342.99) rotate(-180)"/><rect class="cls-2" x="70.91" y="181.42" width="283.46" height="2.83" transform="translate(425.29 365.67) rotate(-180)"/><rect class="cls-2" x="70.91" y="192.76" width="283.46" height="2.83" transform="translate(425.29 388.35) rotate(-180)"/><rect class="cls-2" x="70.87" y="158.74" width="340.16" height="2.83"/><rect class="cls-2" x="70.87" y="215.43" width="340.16" height="2.83"/><rect class="cls-2" x="70.87" y="204.09" width="340.16" height="2.83"/><rect class="cls-2" x="70.87" y="238.11" width="340.16" height="2.83"/><rect class="cls-2" x="70.87" y="226.77" width="340.16" height="2.83"/><rect class="cls-2" x="70.87" y="249.45" width="340.16" height="2.83"/><rect class="cls-2" x="70.87" y="147.4" width="340.16" height="2.83"/><rect class="cls-2" x="70.87" y="136.06" width="340.16" height="2.83"/><rect class="cls-2" x="70.87" y="476.22" width="340.16" height="2.83"/><rect class="cls-2" x="70.87" y="487.56" width="340.16" height="2.83"/><rect class="cls-2" x="70.87" y="510.24" width="340.16" height="2.83"/><rect class="cls-2" x="70.87" y="498.9" width="340.16" height="2.83"/><rect class="cls-2" x="70.87" y="521.57" width="340.16" height="2.83"/><rect class="cls-2" x="70.87" y="532.91" width="340.16" height="2.83"/><rect class="cls-2" x="70.87" y="555.59" width="340.16" height="2.83"/><rect class="cls-2" x="70.87" y="566.93" width="340.16" height="2.83"/><rect class="cls-2" x="70.87" y="544.25" width="340.16" height="2.83"/><rect class="cls-2" x="70.87" y="328.82" width="340.16" height="2.83"/><rect class="cls-2" x="70.87" y="340.16" width="340.16" height="2.83"/><rect class="cls-2" x="70.87" y="374.17" width="340.16" height="2.83"/><rect class="cls-2" x="70.87" y="362.83" width="340.16" height="2.83"/><rect class="cls-2" x="70.87" y="351.5" width="340.16" height="2.83"/><rect class="cls-2" x="70.87" y="385.51" width="340.16" height="2.83"/><rect class="cls-2" x="70.87" y="396.85" width="340.16" height="2.83"/><rect class="cls-2" x="70.87" y="430.87" width="340.16" height="2.83"/><rect class="cls-2" x="70.87" y="419.53" width="340.16" height="2.83"/><rect class="cls-2" x="70.87" y="408.19" width="340.16" height="2.83"/><path class="cls-4" d="M245.3,53.91a17.23,17.23,0,0,0,2.81.16c5.95,0,9.19-3.32,9.19-9.15a8.73,8.73,0,0,0-1.46-5.23H245.3Z"/><path class="cls-4" d="M259.11,39.69a11.26,11.26,0,0,1,1.1,5.14,11.38,11.38,0,0,1-3.11,8.38c-2,2-5.34,3.1-9.53,3.1a45.12,45.12,0,0,1-5.06-.25V39.69h-8.78l5.61,16.43h-3l-2.31-6.78h-7.64l-2.24,6.78H221.3l5.58-16.43h-156V68H411V39.69Z"/><path class="cls-4" d="M229.1,40.92,227,47.16h6.5L231.38,41c-.15-.43-.28-.85-.4-1.26h-1.51C229.35,40.1,229.24,40.51,229.1,40.92Z"/><path class="cls-4" d="M224.1,606.61l4.52-13.31H232l4.55,13.31h6v-13a40.81,40.81,0,0,1,5.92-.44c4,0,6.85.92,8.74,2.68a9.94,9.94,0,0,1,3,7.75,14.69,14.69,0,0,1-.32,3H411V581.42H70.87v25.19Z"/><path class="cls-4" d="M230.26,595.76h-.07c-.32,1.28-.67,2.59-1.09,3.9L227,605.9h6.5l-2.11-6.21C230.9,598.29,230.58,597,230.26,595.76Z"/><path class="cls-4" d="M248.56,595.34a15.7,15.7,0,0,0-3.26.29v11H257a12.87,12.87,0,0,0,.33-3C257.33,598.58,254.45,595.34,248.56,595.34Z"/></g></g></svg>