<svg xmlns="http://www.w3.org/2000/svg" viewBox="0 0 481.89 646.3"><defs><style>.cls-1{fill:#fff;}.cls-2{fill:#9697a1;}.cls-3{fill:#ea5328;}.cls-4{fill:none;stroke:#1d1d1b;stroke-miterlimit:10;stroke-width:2px;}</style></defs><g id="Layer_2" data-name="Layer 2"><g id="Layer_1-2" data-name="Layer 1"><rect class="cls-1" width="481.89" height="646.3"/><rect class="cls-2" x="70.87" y="334.49" width="340.16" height="2.83"/><rect class="cls-3" x="70.87" y="28.35" width="340.16" height="11.34"/><rect class="cls-2" x="70.87" y="289.13" width="340.16" height="2.83"/><rect class="cls-3" x="70.87" y="606.61" width="340.16" height="11.34"/><rect class="cls-2" x="70.87" y="232.44" width="340.16" height="2.83"/><rect class="cls-4" x="28.35" y="28.35" width="425.2" height="306.14"/><rect class="cls-2" x="70.96" y="51.02" width="42.52" height="25.51"/><rect class="cls-2" x="127.56" y="51.02" width="283.46" height="2.83"/><rect class="cls-2" x="127.56" y="62.36" width="283.46" height="2.83"/><rect class="cls-2" x="127.56" y="73.7" width="283.46" height="2.83"/><rect class="cls-2" x="70.87" y="85.04" width="340.16" height="2.83"/><rect class="cls-2" x="70.87" y="96.38" width="340.16" height="2.83"/><rect class="cls-2" x="70.96" y="413.86" width="42.52" height="25.51"/><rect class="cls-2" x="127.56" y="413.86" width="283.46" height="2.83"/><rect class="cls-2" x="127.56" y="425.2" width="283.46" height="2.83"/><rect class="cls-2" x="127.56" y="436.54" width="283.46" height="2.83"/><rect class="cls-2" x="70.96" y="243.78" width="42.52" height="25.51"/><rect class="cls-2" x="127.56" y="243.78" width="283.46" height="2.83"/><rect class="cls-2" x="127.56" y="255.12" width="283.46" height="2.83"/><rect class="cls-2" x="127.56" y="266.46" width="283.46" height="2.83"/><rect class="cls-2" x="70.87" y="277.8" width="340.16" height="2.83"/><rect class="cls-2" x="368.46" y="141.73" width="42.52" height="25.51" transform="translate(779.43 308.98) rotate(-180)"/><rect class="cls-2" x="70.91" y="141.73" width="283.46" height="2.83" transform="translate(425.29 286.3) rotate(-180)"/><rect class="cls-2" x="70.91" y="153.07" width="283.46" height="2.83" transform="translate(425.29 308.98) rotate(-180)"/><rect class="cls-2" x="70.91" y="164.41" width="283.46" height="2.83" transform="translate(425.29 331.65) rotate(-180)"/><rect class="cls-2" x="70.87" y="130.39" width="340.16" height="2.83"/><rect class="cls-2" x="70.87" y="187.09" width="340.16" height="2.83"/><rect class="cls-2" x="70.87" y="175.75" width="340.16" height="2.83"/><rect class="cls-2" x="70.87" y="209.76" width="340.16" height="2.83"/><rect class="cls-2" x="70.87" y="198.43" width="340.16" height="2.83"/><rect class="cls-2" x="70.87" y="221.1" width="340.16" height="2.83"/><rect class="cls-2" x="70.87" y="119.06" width="340.16" height="2.83"/><rect class="cls-2" x="70.87" y="107.72" width="340.16" height="2.83"/><rect class="cls-2" x="70.87" y="447.87" width="340.16" height="2.83"/><rect class="cls-2" x="70.87" y="459.21" width="340.16" height="2.83"/><rect class="cls-2" x="70.87" y="481.89" width="340.16" height="2.83"/><rect class="cls-2" x="70.87" y="470.55" width="340.16" height="2.83"/><rect class="cls-2" x="70.87" y="493.23" width="340.16" height="2.83"/><rect class="cls-2" x="70.87" y="504.57" width="340.16" height="2.83"/><rect class="cls-2" x="70.87" y="527.24" width="340.16" height="2.83"/><rect class="cls-2" x="70.87" y="515.91" width="340.16" height="2.83"/><rect class="cls-2" x="70.87" y="549.92" width="340.16" height="2.83"/><rect class="cls-2" x="70.87" y="538.58" width="340.16" height="2.83"/><rect class="cls-2" x="70.87" y="561.26" width="340.16" height="2.83"/><rect class="cls-2" x="70.87" y="572.6" width="340.16" height="2.83"/><rect class="cls-2" x="70.87" y="595.28" width="340.16" height="2.83"/><rect class="cls-2" x="70.87" y="583.94" width="340.16" height="2.83"/><rect class="cls-2" x="70.87" y="300.47" width="340.16" height="2.83"/><rect class="cls-2" x="70.87" y="311.81" width="340.16" height="2.83"/><rect class="cls-2" x="70.87" y="345.83" width="340.16" height="2.83"/><rect class="cls-2" x="70.87" y="323.15" width="340.16" height="2.83"/><rect class="cls-2" x="70.87" y="357.17" width="340.16" height="2.83"/><rect class="cls-2" x="70.87" y="368.5" width="340.16" height="2.83"/><rect class="cls-2" x="70.87" y="402.52" width="340.16" height="2.83"/><rect class="cls-2" x="70.87" y="391.18" width="340.16" height="2.83"/><rect class="cls-2" x="70.87" y="379.84" width="340.16" height="2.83"/></g></g></svg>