<svg xmlns="http://www.w3.org/2000/svg" viewBox="0 0 481.89 646.3"><defs><style>.cls-1{fill:#fff;}.cls-2{fill:#9697a1;}.cls-3{fill:#ea5328;}.cls-4{fill:none;stroke:#1d1d1b;stroke-miterlimit:10;stroke-width:2px;}</style></defs><g id="Layer_2" data-name="Layer 2"><g id="Layer_1-2" data-name="Layer 1"><rect class="cls-1" width="481.89" height="646.3"/><rect class="cls-2" x="70.87" y="334.49" width="340.16" height="2.83"/><rect class="cls-3" x="70.87" y="384.25" width="340.16" height="45.35"/><path class="cls-1" d="M226.42,410.91l-2.24,6.79H221.3l7.32-21.57H232l7.36,21.57h-3l-2.31-6.79Zm7.07-2.17-2.11-6.21c-.48-1.41-.8-2.69-1.12-3.94h-.07c-.32,1.28-.67,2.6-1.09,3.91L227,408.74Z"/><path class="cls-1" d="M242.51,396.42a39.35,39.35,0,0,1,5.92-.45c4,0,6.85.93,8.74,2.69a9.92,9.92,0,0,1,3,7.74,11.38,11.38,0,0,1-3.11,8.38c-2,2-5.34,3.11-9.53,3.11a44.86,44.86,0,0,1-5.06-.26Zm2.79,19.07a17.23,17.23,0,0,0,2.81.16c5.95,0,9.19-3.33,9.19-9.15,0-5.09-2.85-8.32-8.74-8.32a15.7,15.7,0,0,0-3.26.29Z"/><rect class="cls-2" x="70.87" y="277.8" width="340.16" height="2.83"/><rect class="cls-4" x="28.35" y="28.35" width="425.2" height="306.14"/><rect class="cls-2" x="70.96" y="96.38" width="42.52" height="25.51"/><rect class="cls-2" x="127.56" y="96.38" width="283.46" height="2.83"/><rect class="cls-2" x="127.56" y="107.72" width="283.46" height="2.83"/><rect class="cls-2" x="127.56" y="119.06" width="283.46" height="2.83"/><rect class="cls-2" x="70.87" y="130.39" width="340.16" height="2.83"/><rect class="cls-2" x="70.87" y="141.73" width="340.16" height="2.83"/><rect class="cls-2" x="70.96" y="520.32" width="42.52" height="25.51"/><rect class="cls-2" x="127.56" y="520.32" width="283.46" height="2.83"/><rect class="cls-2" x="127.56" y="531.65" width="283.46" height="2.83"/><rect class="cls-2" x="127.56" y="542.99" width="283.46" height="2.83"/><rect class="cls-2" x="70.96" y="289.13" width="42.52" height="25.51"/><rect class="cls-2" x="127.56" y="289.13" width="283.46" height="2.83"/><rect class="cls-2" x="127.56" y="300.47" width="283.46" height="2.83"/><rect class="cls-2" x="127.56" y="311.81" width="283.46" height="2.83"/><rect class="cls-2" x="70.87" y="323.15" width="340.16" height="2.83"/><rect class="cls-2" x="70.87" y="554.33" width="340.16" height="2.83"/><rect class="cls-2" x="368.46" y="187.09" width="42.52" height="25.51" transform="translate(779.43 399.69) rotate(-180)"/><rect class="cls-2" x="70.91" y="187.09" width="283.46" height="2.83" transform="translate(425.29 377.01) rotate(-180)"/><rect class="cls-2" x="70.91" y="198.43" width="283.46" height="2.83" transform="translate(425.29 399.69) rotate(-180)"/><rect class="cls-2" x="70.91" y="209.76" width="283.46" height="2.83" transform="translate(425.29 422.36) rotate(-180)"/><rect class="cls-2" x="70.87" y="175.75" width="340.16" height="2.83"/><rect class="cls-2" x="70.87" y="232.44" width="340.16" height="2.83"/><rect class="cls-2" x="70.87" y="221.1" width="340.16" height="2.83"/><rect class="cls-2" x="70.87" y="255.12" width="340.16" height="2.83"/><rect class="cls-2" x="70.87" y="243.78" width="340.16" height="2.83"/><rect class="cls-2" x="70.87" y="266.46" width="340.16" height="2.83"/><rect class="cls-2" x="70.87" y="164.41" width="340.16" height="2.83"/><rect class="cls-2" x="70.87" y="153.07" width="340.16" height="2.83"/><rect class="cls-2" x="70.87" y="565.67" width="340.16" height="2.83"/><rect class="cls-2" x="70.87" y="577.01" width="340.16" height="2.83"/><rect class="cls-2" x="70.87" y="599.69" width="340.16" height="2.83"/><rect class="cls-2" x="70.87" y="588.35" width="340.16" height="2.83"/><rect class="cls-2" x="70.87" y="345.83" width="340.16" height="2.83"/><rect class="cls-2" x="70.87" y="357.17" width="340.16" height="2.83"/><rect class="cls-2" x="70.87" y="452.28" width="340.16" height="2.83"/><rect class="cls-2" x="70.87" y="440.95" width="340.16" height="2.83"/><rect class="cls-2" x="70.87" y="368.5" width="340.16" height="2.83"/><rect class="cls-2" x="70.87" y="463.62" width="340.16" height="2.83"/><rect class="cls-2" x="70.87" y="474.96" width="340.16" height="2.83"/><rect class="cls-2" x="70.87" y="508.98" width="340.16" height="2.83"/><rect class="cls-2" x="70.87" y="497.64" width="340.16" height="2.83"/><rect class="cls-2" x="70.87" y="486.3" width="340.16" height="2.83"/><rect class="cls-3" x="70.87" y="39.69" width="340.16" height="45.35"/><path class="cls-1" d="M226.42,66.35l-2.24,6.78H221.3l7.32-21.57H232l7.36,21.57h-3l-2.31-6.78Zm7.07-2.18L231.38,58c-.48-1.41-.8-2.68-1.12-3.93h-.07c-.32,1.28-.67,2.59-1.09,3.9L227,64.17Z"/><path class="cls-1" d="M242.51,51.85a39.35,39.35,0,0,1,5.92-.45c4,0,6.85.93,8.74,2.69a9.94,9.94,0,0,1,3,7.74,11.42,11.42,0,0,1-3.11,8.39c-2,2-5.34,3.1-9.53,3.1a45.12,45.12,0,0,1-5.06-.25Zm2.79,19.07a17.23,17.23,0,0,0,2.81.16c5.95,0,9.19-3.33,9.19-9.15,0-5.09-2.85-8.32-8.74-8.32a15.7,15.7,0,0,0-3.26.29Z"/></g></g></svg>