<svg xmlns="http://www.w3.org/2000/svg" viewBox="0 0 481.89 646.3"><defs><style>.cls-1{fill:#fff;}.cls-2{fill:#ea5328;}.cls-3{fill:none;stroke:#1d1d1b;stroke-miterlimit:10;stroke-width:2px;}.cls-4{fill:#9697a1;}</style></defs><g id="Layer_2" data-name="Layer 2"><g id="Layer_1-2" data-name="Layer 1"><rect class="cls-1" width="481.89" height="646.3"/><rect class="cls-2" x="70.87" y="300.47" width="340.16" height="45.35"/><path class="cls-1" d="M226.42,327.13l-2.24,6.79H221.3l7.32-21.57H232l7.36,21.57h-3l-2.31-6.79Zm7.07-2.17-2.11-6.21c-.48-1.41-.8-2.69-1.12-3.94h-.07c-.32,1.28-.67,2.6-1.09,3.91L227,325Z"/><path class="cls-1" d="M242.51,312.64a39.35,39.35,0,0,1,5.92-.45c4,0,6.85.93,8.74,2.69a9.92,9.92,0,0,1,3,7.74A11.42,11.42,0,0,1,257.1,331c-2,2-5.34,3.1-9.53,3.1a44.86,44.86,0,0,1-5.06-.26Zm2.79,19.07a17.23,17.23,0,0,0,2.81.16c5.95,0,9.19-3.33,9.19-9.15,0-5.09-2.85-8.32-8.74-8.32a15.7,15.7,0,0,0-3.26.29Z"/><rect class="cls-2" x="70.87" y="430.87" width="340.16" height="45.35"/><path class="cls-1" d="M226.42,457.53l-2.24,6.78H221.3l7.32-21.57H232l7.36,21.57h-3l-2.31-6.78Zm7.07-2.18-2.11-6.21c-.48-1.4-.8-2.68-1.12-3.93h-.07c-.32,1.28-.67,2.59-1.09,3.9L227,455.35Z"/><path class="cls-1" d="M242.51,443a40.7,40.7,0,0,1,5.92-.45c4,0,6.85.93,8.74,2.69a9.94,9.94,0,0,1,3,7.75,11.38,11.38,0,0,1-3.11,8.38c-2,2-5.34,3.1-9.53,3.1a45.12,45.12,0,0,1-5.06-.25Zm2.79,19.07a17.23,17.23,0,0,0,2.81.16c5.95,0,9.19-3.32,9.19-9.15,0-5.09-2.85-8.32-8.74-8.32a15.7,15.7,0,0,0-3.26.29Z"/><rect class="cls-2" x="70.87" y="561.26" width="340.16" height="45.35"/><path class="cls-1" d="M226.42,587.92l-2.24,6.78H221.3l7.32-21.56H232l7.36,21.56h-3l-2.31-6.78Zm7.07-2.18-2.11-6.2c-.48-1.41-.8-2.69-1.12-3.94h-.07c-.32,1.28-.67,2.59-1.09,3.91L227,585.74Z"/><path class="cls-1" d="M242.51,573.43a39.35,39.35,0,0,1,5.92-.45c4,0,6.85.93,8.74,2.69a9.92,9.92,0,0,1,3,7.74,11.38,11.38,0,0,1-3.11,8.38c-2,2-5.34,3.11-9.53,3.11a44.86,44.86,0,0,1-5.06-.26Zm2.79,19.07a18.43,18.43,0,0,0,2.81.16c5.95,0,9.19-3.33,9.19-9.15,0-5.09-2.85-8.32-8.74-8.32a15.84,15.84,0,0,0-3.26.28Z"/><rect class="cls-3" x="28.35" y="28.35" width="425.2" height="306.14"/><rect class="cls-4" x="70.96" y="96.38" width="42.52" height="25.51"/><rect class="cls-4" x="127.56" y="96.38" width="283.46" height="2.83"/><rect class="cls-4" x="127.56" y="107.72" width="283.46" height="2.83"/><rect class="cls-4" x="127.56" y="119.06" width="283.46" height="2.83"/><rect class="cls-4" x="70.87" y="130.39" width="340.16" height="2.83"/><rect class="cls-4" x="70.87" y="141.73" width="340.16" height="2.83"/><rect class="cls-4" x="70.87" y="153.07" width="340.16" height="2.83"/><rect class="cls-4" x="70.96" y="487.56" width="42.52" height="25.51"/><rect class="cls-4" x="127.56" y="487.56" width="283.46" height="2.83"/><rect class="cls-4" x="127.56" y="498.9" width="283.46" height="2.83"/><rect class="cls-4" x="127.56" y="510.24" width="283.46" height="2.83"/><rect class="cls-4" x="70.87" y="521.57" width="340.16" height="2.83"/><rect class="cls-4" x="70.87" y="532.91" width="340.16" height="2.83"/><rect class="cls-4" x="70.87" y="544.25" width="340.16" height="2.83"/><rect class="cls-4" x="368.46" y="263.62" width="42.52" height="25.51" transform="translate(779.43 552.76) rotate(-180)"/><rect class="cls-4" x="70.91" y="263.62" width="283.46" height="2.83" transform="translate(425.29 530.08) rotate(-180)"/><rect class="cls-4" x="70.91" y="274.96" width="283.46" height="2.83" transform="translate(425.29 552.76) rotate(-180)"/><rect class="cls-4" x="70.91" y="286.3" width="283.46" height="2.83" transform="translate(425.29 575.43) rotate(-180)"/><rect class="cls-4" x="70.87" y="249.45" width="340.16" height="2.83"/><rect class="cls-4" x="70.87" y="368.5" width="340.16" height="2.83"/><rect class="cls-4" x="70.87" y="357.17" width="340.16" height="2.83"/><rect class="cls-4" x="70.87" y="391.18" width="340.16" height="2.83"/><rect class="cls-4" x="70.87" y="379.84" width="340.16" height="2.83"/><rect class="cls-4" x="70.87" y="402.52" width="340.16" height="2.83"/><rect class="cls-4" x="70.87" y="413.86" width="340.16" height="2.83"/><rect class="cls-4" x="70.87" y="238.11" width="340.16" height="2.83"/><rect class="cls-4" x="70.87" y="226.77" width="340.16" height="2.83"/><rect class="cls-2" x="70.87" y="39.69" width="340.16" height="45.35"/><path class="cls-1" d="M226.42,66.35l-2.24,6.78H221.3l7.32-21.57H232l7.36,21.57h-3l-2.31-6.78Zm7.07-2.18L231.38,58c-.48-1.41-.8-2.68-1.12-3.93h-.07c-.32,1.28-.67,2.59-1.09,3.9L227,64.17Z"/><path class="cls-1" d="M242.51,51.85a39.35,39.35,0,0,1,5.92-.45c4,0,6.85.93,8.74,2.69a9.94,9.94,0,0,1,3,7.74,11.42,11.42,0,0,1-3.11,8.39c-2,2-5.34,3.1-9.53,3.1a45.12,45.12,0,0,1-5.06-.25Zm2.79,19.07a17.23,17.23,0,0,0,2.81.16c5.95,0,9.19-3.33,9.19-9.15,0-5.09-2.85-8.32-8.74-8.32a15.7,15.7,0,0,0-3.26.29Z"/><rect class="cls-2" x="70.87" y="170.08" width="340.16" height="45.35"/><path class="cls-1" d="M226.42,196.74l-2.24,6.78H221.3L228.62,182H232l7.36,21.56h-3l-2.31-6.78Zm7.07-2.18-2.11-6.2c-.48-1.41-.8-2.69-1.12-3.94h-.07c-.32,1.28-.67,2.59-1.09,3.9L227,194.56Z"/><path class="cls-1" d="M242.51,182.24a40.81,40.81,0,0,1,5.92-.44c4,0,6.85.92,8.74,2.68a9.94,9.94,0,0,1,3,7.75,11.38,11.38,0,0,1-3.11,8.38c-2,2-5.34,3.11-9.53,3.11a44.86,44.86,0,0,1-5.06-.26Zm2.79,19.08a18.43,18.43,0,0,0,2.81.16c5.95,0,9.19-3.33,9.19-9.16,0-5.08-2.85-8.32-8.74-8.32a15.7,15.7,0,0,0-3.26.29Z"/></g></g></svg>