<svg xmlns="http://www.w3.org/2000/svg" viewBox="0 0 481.89 646.3"><defs><style>.cls-1{fill:#fff;}.cls-2{fill:none;stroke:#1d1d1b;stroke-miterlimit:10;stroke-width:2px;}.cls-3{fill:#9697a1;}.cls-4{fill:#ea5328;}</style></defs><g id="Layer_2" data-name="Layer 2"><g id="Layer_1-2" data-name="Layer 1"><rect class="cls-1" width="481.89" height="646.3"/><rect class="cls-2" x="28.35" y="28.35" width="425.2" height="306.14"/><rect class="cls-3" x="70.96" y="96.38" width="42.52" height="25.51"/><rect class="cls-3" x="127.56" y="96.38" width="283.46" height="2.83"/><rect class="cls-3" x="127.56" y="107.72" width="283.46" height="2.83"/><rect class="cls-3" x="127.56" y="119.06" width="283.46" height="2.83"/><rect class="cls-3" x="70.87" y="130.39" width="340.16" height="2.83"/><rect class="cls-3" x="70.87" y="141.73" width="340.16" height="2.83"/><rect class="cls-3" x="70.96" y="348.35" width="42.52" height="25.51"/><rect class="cls-3" x="127.56" y="348.35" width="283.46" height="2.83"/><rect class="cls-3" x="127.56" y="359.69" width="283.46" height="2.83"/><rect class="cls-3" x="127.56" y="371.02" width="283.46" height="2.83"/><rect class="cls-3" x="70.87" y="382.36" width="340.16" height="2.83"/><rect class="cls-3" x="70.87" y="393.7" width="340.16" height="2.83"/><rect class="cls-3" x="368.46" y="189.92" width="42.52" height="25.51" transform="translate(779.43 405.35) rotate(-180)"/><rect class="cls-3" x="70.91" y="189.92" width="283.46" height="2.83" transform="translate(425.29 382.68) rotate(-180)"/><rect class="cls-3" x="70.91" y="201.26" width="283.46" height="2.83" transform="translate(425.29 405.35) rotate(-180)"/><rect class="cls-3" x="70.91" y="212.6" width="283.46" height="2.83" transform="translate(425.29 428.03) rotate(-180)"/><rect class="cls-3" x="70.87" y="175.75" width="340.16" height="2.83"/><rect class="cls-3" x="70.87" y="291.65" width="340.16" height="2.83"/><rect class="cls-3" x="70.87" y="280.31" width="340.16" height="2.83"/><rect class="cls-3" x="70.87" y="314.33" width="340.16" height="2.83"/><rect class="cls-3" x="70.87" y="302.99" width="340.16" height="2.83"/><rect class="cls-3" x="70.87" y="325.67" width="340.16" height="2.83"/><rect class="cls-3" x="70.87" y="337.01" width="340.16" height="2.83"/><rect class="cls-3" x="70.87" y="164.41" width="340.16" height="2.83"/><rect class="cls-3" x="70.87" y="153.07" width="340.16" height="2.83"/><rect class="cls-3" x="70.87" y="464.25" width="340.16" height="2.83"/><rect class="cls-3" x="70.87" y="475.59" width="340.16" height="2.83"/><rect class="cls-3" x="70.87" y="509.61" width="340.16" height="2.83"/><rect class="cls-3" x="70.87" y="498.27" width="340.16" height="2.83"/><rect class="cls-3" x="70.87" y="486.93" width="340.16" height="2.83"/><rect class="cls-3" x="70.87" y="520.94" width="340.16" height="2.83"/><rect class="cls-3" x="70.87" y="532.28" width="340.16" height="2.83"/><rect class="cls-3" x="70.87" y="566.3" width="340.16" height="2.83"/><rect class="cls-3" x="70.87" y="577.64" width="340.16" height="2.83"/><rect class="cls-3" x="70.87" y="554.96" width="340.16" height="2.83"/><rect class="cls-3" x="70.87" y="543.62" width="340.16" height="2.83"/><rect class="cls-4" x="70.87" y="39.69" width="340.16" height="45.35"/><path class="cls-1" d="M226.42,66.35l-2.24,6.78H221.3l7.32-21.57H232l7.36,21.57h-3l-2.31-6.78Zm7.07-2.18L231.38,58c-.48-1.41-.8-2.68-1.12-3.93h-.07c-.32,1.28-.67,2.59-1.09,3.9L227,64.17Z"/><path class="cls-1" d="M242.51,51.85a39.35,39.35,0,0,1,5.92-.45c4,0,6.85.93,8.74,2.69a9.94,9.94,0,0,1,3,7.74,11.42,11.42,0,0,1-3.11,8.39c-2,2-5.34,3.1-9.53,3.1a45.12,45.12,0,0,1-5.06-.25Zm2.79,19.07a17.23,17.23,0,0,0,2.81.16c5.95,0,9.19-3.33,9.19-9.15,0-5.09-2.85-8.32-8.74-8.32a15.7,15.7,0,0,0-3.26.29Z"/><rect class="cls-4" x="70.87" y="223.62" width="340.16" height="45.35"/><path class="cls-1" d="M226.42,250.28l-2.24,6.79H221.3l7.32-21.57H232l7.36,21.57h-3l-2.31-6.79Zm7.07-2.17-2.11-6.21c-.48-1.41-.8-2.69-1.12-3.94h-.07c-.32,1.28-.67,2.6-1.09,3.91L227,248.11Z"/><path class="cls-1" d="M242.51,235.79a39.35,39.35,0,0,1,5.92-.45c4,0,6.85.93,8.74,2.69a9.92,9.92,0,0,1,3,7.74,11.38,11.38,0,0,1-3.11,8.38c-2,2-5.34,3.11-9.53,3.11a44.86,44.86,0,0,1-5.06-.26Zm2.79,19.07a17.23,17.23,0,0,0,2.81.16c5.95,0,9.19-3.33,9.19-9.15,0-5.09-2.85-8.32-8.74-8.32a15.7,15.7,0,0,0-3.26.29Z"/><rect class="cls-4" x="70.87" y="407.56" width="340.16" height="45.35"/><path class="cls-1" d="M226.42,434.22,224.18,441H221.3l7.32-21.56H232L239.34,441h-3l-2.31-6.78Zm7.07-2.18-2.11-6.2c-.48-1.41-.8-2.69-1.12-3.94h-.07c-.32,1.28-.67,2.59-1.09,3.9L227,432Z"/><path class="cls-1" d="M242.51,419.73a39.35,39.35,0,0,1,5.92-.45c4,0,6.85.93,8.74,2.69a9.91,9.91,0,0,1,3,7.74,11.38,11.38,0,0,1-3.11,8.38c-2,2-5.34,3.11-9.53,3.11a44.86,44.86,0,0,1-5.06-.26Zm2.79,19.07a18.43,18.43,0,0,0,2.81.16c5.95,0,9.19-3.33,9.19-9.16,0-5.08-2.85-8.31-8.74-8.31a15.84,15.84,0,0,0-3.26.28Z"/><path class="cls-4" d="M227.52,606.61l1.1-3.24H232l1.11,3.24h9.42v-3a40.7,40.7,0,0,1,5.92-.45c4,0,6.85.93,8.74,2.69.24.23.47.46.69.71H411V591.5H70.87v15.11Z"/><path class="cls-4" d="M245.3,605.71v.9h8.44a10.34,10.34,0,0,0-5.18-1.19A15.7,15.7,0,0,0,245.3,605.71Z"/><path class="cls-4" d="M230.19,605.84c-.06.25-.13.52-.2.77h.47c-.07-.26-.14-.52-.2-.77Z"/></g></g></svg>