<svg xmlns="http://www.w3.org/2000/svg" viewBox="0 0 226.77 625.08"><defs><style>.cls-1,.cls-3{fill:#fff;}.cls-2{fill:#ea5328;}.cls-3{font-size:33.74px;font-family:MyriadPro-Regular, Myriad Pro;}.cls-4{fill:#9697a1;}.cls-5{fill:none;stroke:#1d1d1b;stroke-miterlimit:10;stroke-width:2px;}</style></defs><g id="Layer_2" data-name="Layer 2"><g id="Layer_1-2" data-name="Layer 1"><rect class="cls-1" width="226.77" height="625.08"/><rect class="cls-2" x="49.44" y="42.52" width="127.56" height="106.3"/><text class="cls-3" transform="translate(92.24 106.02) scale(0.97 1)">AD</text><rect class="cls-2" x="49.44" y="337.8" width="127.56" height="106.3"/><text class="cls-3" transform="translate(92.24 401.29) scale(0.97 1)">AD</text><rect class="cls-4" x="49.44" y="158.74" width="35.43" height="22.68"/><rect class="cls-5" x="28.18" y="25.51" width="170.08" height="317.48" rx="14.5"/><rect class="cls-4" x="97.63" y="158.74" width="79.37" height="2.83"/><rect class="cls-4" x="97.63" y="168.66" width="79.37" height="2.83"/><rect class="cls-4" x="97.63" y="178.58" width="79.37" height="2.83"/><rect class="cls-4" x="49.44" y="188.5" width="127.56" height="2.83"/><rect class="cls-4" x="49.44" y="198.43" width="127.56" height="2.83"/><rect class="cls-4" x="49.44" y="208.35" width="127.56" height="2.83"/><rect class="cls-4" x="49.44" y="218.27" width="127.56" height="2.83"/><rect class="cls-4" x="49.44" y="287.72" width="35.43" height="22.68"/><rect class="cls-4" x="97.63" y="287.72" width="79.37" height="2.83"/><rect class="cls-4" x="97.63" y="297.64" width="79.37" height="2.83"/><rect class="cls-4" x="97.63" y="307.56" width="79.37" height="2.83"/><rect class="cls-4" x="49.44" y="317.48" width="127.56" height="2.83"/><rect class="cls-4" x="49.44" y="327.4" width="127.56" height="2.83"/><rect class="cls-4" x="49.44" y="454.02" width="127.56" height="2.83"/><rect class="cls-4" x="49.44" y="463.94" width="127.56" height="2.83"/><rect class="cls-4" x="49.44" y="473.86" width="35.43" height="22.68"/><rect class="cls-4" x="97.63" y="473.86" width="79.37" height="2.83"/><rect class="cls-4" x="97.63" y="483.78" width="79.37" height="2.83"/><rect class="cls-4" x="97.63" y="493.7" width="79.37" height="2.83"/><rect class="cls-4" x="49.44" y="503.62" width="127.56" height="2.83"/><rect class="cls-4" x="49.44" y="513.54" width="127.56" height="2.83"/><rect class="cls-4" x="49.44" y="523.46" width="127.56" height="2.83"/><rect class="cls-4" x="49.44" y="533.39" width="127.56" height="2.83"/><rect class="cls-4" x="49.44" y="543.31" width="127.56" height="2.83"/><rect class="cls-4" x="49.44" y="553.23" width="127.56" height="2.83"/><rect class="cls-4" x="49.44" y="563.15" width="127.56" height="2.83"/><rect class="cls-4" x="49.44" y="573.07" width="127.56" height="2.83"/><rect class="cls-4" x="141.57" y="228.19" width="35.43" height="22.68" transform="translate(318.57 479.06) rotate(-180)"/><rect class="cls-4" x="49.44" y="228.19" width="79.37" height="2.83" transform="translate(178.25 459.21) rotate(-180)"/><rect class="cls-4" x="49.44" y="238.11" width="79.37" height="2.83" transform="translate(178.25 479.06) rotate(-180)"/><rect class="cls-4" x="49.44" y="248.03" width="79.37" height="2.83" transform="translate(178.25 498.9) rotate(-180)"/><rect class="cls-4" x="49.44" y="257.95" width="127.56" height="2.83" transform="translate(226.44 518.74) rotate(-180)"/><rect class="cls-4" x="49.44" y="267.87" width="127.56" height="2.83" transform="translate(226.44 538.58) rotate(-180)"/><rect class="cls-4" x="49.44" y="277.8" width="127.56" height="2.83" transform="translate(226.44 558.43) rotate(-180)"/><rect class="cls-4" x="141.57" y="592.91" width="35.43" height="16.54" transform="translate(318.57 1202.36) rotate(-180)"/><rect class="cls-4" x="49.44" y="592.91" width="79.37" height="2.83" transform="translate(178.25 1188.66) rotate(-180)"/><rect class="cls-4" x="49.44" y="602.83" width="79.37" height="2.83" transform="translate(178.25 1208.5) rotate(-180)"/><rect class="cls-4" x="49.44" y="582.99" width="127.56" height="2.83" transform="translate(226.44 1168.82) rotate(-180)"/></g></g></svg>