<svg xmlns="http://www.w3.org/2000/svg" viewBox="0 0 226.77 625.08"><defs><style>.cls-1{fill:#fff;}.cls-2{fill:#9697a1;}.cls-3{fill:#ea5328;}.cls-4{fill:none;stroke:#1d1d1b;stroke-miterlimit:10;stroke-width:2px;}</style></defs><g id="Layer_2" data-name="Layer 2"><g id="Layer_1-2" data-name="Layer 1"><rect class="cls-1" width="226.77" height="625.08"/><rect class="cls-2" x="49.61" y="340.16" width="127.56" height="2.83" transform="translate(226.77 683.15) rotate(-180)"/><rect class="cls-3" x="49.61" y="25.51" width="127.56" height="17.01"/><rect class="cls-3" x="49.61" y="609.45" width="127.56" height="15.63"/><rect class="cls-4" x="28.35" y="25.51" width="170.08" height="317.48" rx="14.5"/><rect class="cls-2" x="49.61" y="211.18" width="35.43" height="22.68"/><rect class="cls-2" x="97.8" y="211.18" width="79.37" height="2.83"/><rect class="cls-2" x="97.8" y="221.1" width="79.37" height="2.83"/><rect class="cls-2" x="97.8" y="231.02" width="79.37" height="2.83"/><rect class="cls-2" x="49.61" y="240.94" width="127.56" height="2.83"/><rect class="cls-2" x="49.61" y="250.87" width="127.56" height="2.83"/><rect class="cls-2" x="49.61" y="260.79" width="127.56" height="2.83"/><rect class="cls-2" x="49.61" y="270.71" width="127.56" height="2.83"/><rect class="cls-2" x="49.53" y="498.9" width="35.43" height="22.68"/><rect class="cls-2" x="97.72" y="498.9" width="79.37" height="2.83"/><rect class="cls-2" x="97.72" y="508.82" width="79.37" height="2.83"/><rect class="cls-2" x="97.72" y="518.74" width="79.37" height="2.83"/><rect class="cls-2" x="49.53" y="528.66" width="127.56" height="2.83"/><rect class="cls-2" x="49.53" y="538.58" width="127.56" height="2.83"/><rect class="cls-2" x="49.53" y="548.5" width="127.56" height="2.83"/><rect class="cls-2" x="49.53" y="558.43" width="127.56" height="2.83"/><rect class="cls-2" x="49.53" y="568.35" width="127.56" height="2.83"/><rect class="cls-2" x="49.53" y="578.27" width="127.56" height="2.83"/><rect class="cls-2" x="49.53" y="588.19" width="127.56" height="2.83"/><rect class="cls-2" x="49.53" y="598.11" width="127.56" height="2.83"/><rect class="cls-2" x="49.61" y="280.63" width="35.43" height="22.68"/><rect class="cls-2" x="97.8" y="280.63" width="79.37" height="2.83"/><rect class="cls-2" x="97.8" y="290.55" width="79.37" height="2.83"/><rect class="cls-2" x="97.8" y="300.47" width="79.37" height="2.83"/><rect class="cls-2" x="49.61" y="310.39" width="127.56" height="2.83"/><rect class="cls-2" x="49.61" y="320.31" width="127.56" height="2.83"/><rect class="cls-2" x="49.61" y="330.24" width="127.56" height="2.83"/><rect class="cls-2" x="49.61" y="52.44" width="35.43" height="22.68"/><rect class="cls-2" x="97.8" y="52.44" width="79.37" height="2.83"/><rect class="cls-2" x="97.8" y="62.36" width="79.37" height="2.83"/><rect class="cls-2" x="97.8" y="72.28" width="79.37" height="2.83"/><rect class="cls-2" x="49.61" y="82.2" width="127.56" height="2.83"/><rect class="cls-2" x="49.61" y="92.13" width="127.56" height="2.83"/><rect class="cls-2" x="49.61" y="102.05" width="127.56" height="2.83"/><rect class="cls-2" x="49.61" y="111.97" width="127.56" height="2.83"/><rect class="cls-2" x="141.73" y="121.89" width="35.43" height="22.68" transform="translate(318.9 266.46) rotate(-180)"/><rect class="cls-2" x="49.61" y="121.89" width="79.37" height="2.83" transform="translate(178.58 246.61) rotate(-180)"/><rect class="cls-2" x="49.61" y="131.81" width="79.37" height="2.83" transform="translate(178.58 266.46) rotate(-180)"/><rect class="cls-2" x="49.61" y="141.73" width="79.37" height="2.83" transform="translate(178.58 286.3) rotate(-180)"/><rect class="cls-2" x="49.61" y="151.65" width="127.56" height="2.83" transform="translate(226.77 306.14) rotate(-180)"/><rect class="cls-2" x="49.61" y="161.57" width="127.56" height="2.83" transform="translate(226.77 325.98) rotate(-180)"/><rect class="cls-2" x="49.61" y="171.5" width="127.56" height="2.83" transform="translate(226.77 345.83) rotate(-180)"/><rect class="cls-2" x="49.61" y="181.42" width="127.56" height="2.83" transform="translate(226.77 365.67) rotate(-180)"/><rect class="cls-2" x="49.61" y="191.34" width="127.56" height="2.83" transform="translate(226.77 385.51) rotate(-180)"/><rect class="cls-2" x="49.61" y="201.26" width="127.56" height="2.83" transform="translate(226.77 405.35) rotate(-180)"/><rect class="cls-2" x="141.73" y="399.69" width="35.43" height="22.68" transform="translate(318.9 822.05) rotate(-180)"/><rect class="cls-2" x="49.61" y="399.69" width="79.37" height="2.83" transform="translate(178.58 802.2) rotate(-180)"/><rect class="cls-2" x="49.61" y="409.61" width="79.37" height="2.83" transform="translate(178.58 822.05) rotate(-180)"/><rect class="cls-2" x="49.61" y="419.53" width="79.37" height="2.83" transform="translate(178.58 841.89) rotate(-180)"/><rect class="cls-2" x="49.61" y="429.45" width="127.56" height="2.83" transform="translate(226.77 861.73) rotate(-180)"/><rect class="cls-2" x="49.61" y="439.37" width="127.56" height="2.83" transform="translate(226.77 881.57) rotate(-180)"/><rect class="cls-2" x="49.61" y="449.29" width="127.56" height="2.83" transform="translate(226.77 901.42) rotate(-180)"/><rect class="cls-2" x="49.61" y="459.21" width="127.56" height="2.83" transform="translate(226.77 921.26) rotate(-180)"/><rect class="cls-2" x="49.61" y="469.13" width="127.56" height="2.83" transform="translate(226.77 941.1) rotate(-180)"/><rect class="cls-2" x="49.61" y="479.06" width="127.56" height="2.83" transform="translate(226.77 960.94) rotate(-180)"/><rect class="cls-2" x="49.53" y="488.98" width="127.56" height="2.83" transform="translate(226.62 980.79) rotate(-180)"/><rect class="cls-2" x="49.61" y="350.08" width="127.56" height="2.83" transform="translate(226.77 702.99) rotate(-180)"/><rect class="cls-2" x="49.61" y="360" width="127.56" height="2.83" transform="translate(226.77 722.83) rotate(-180)"/><rect class="cls-2" x="49.61" y="369.92" width="127.56" height="2.83" transform="translate(226.77 742.68) rotate(-180)"/><rect class="cls-2" x="49.61" y="379.84" width="127.56" height="2.83" transform="translate(226.77 762.52) rotate(-180)"/><rect class="cls-2" x="49.61" y="389.76" width="127.56" height="2.83" transform="translate(226.77 782.36) rotate(-180)"/></g></g></svg>