<svg xmlns="http://www.w3.org/2000/svg" viewBox="0 0 226.77 625.08"><defs><style>.cls-1{fill:#fff;}.cls-2{fill:#9697a1;}.cls-3{fill:#ea5328;}.cls-4{fill:none;stroke:#1d1d1b;stroke-miterlimit:10;stroke-width:2px;}</style></defs><g id="Layer_2" data-name="Layer 2"><g id="Layer_1-2" data-name="Layer 1"><rect class="cls-1" width="226.77" height="625.08"/><rect class="cls-2" x="49.59" y="530.66" width="35.43" height="22.68"/><rect class="cls-2" x="97.78" y="530.66" width="79.37" height="2.83"/><rect class="cls-2" x="97.78" y="540.58" width="79.37" height="2.83"/><rect class="cls-2" x="97.78" y="550.5" width="79.37" height="2.83"/><rect class="cls-2" x="49.59" y="560.43" width="127.56" height="2.83"/><rect class="cls-2" x="141.71" y="430.45" width="35.43" height="22.68" transform="translate(318.86 883.57) rotate(-180)"/><rect class="cls-2" x="49.59" y="430.45" width="79.37" height="2.83" transform="translate(178.55 863.73) rotate(-180)"/><rect class="cls-2" x="49.59" y="440.37" width="79.37" height="2.83" transform="translate(178.55 883.57) rotate(-180)"/><rect class="cls-2" x="49.59" y="450.29" width="79.37" height="2.83" transform="translate(178.55 903.42) rotate(-180)"/><rect class="cls-2" x="49.59" y="460.21" width="127.56" height="2.83" transform="translate(226.73 923.26) rotate(-180)"/><rect class="cls-2" x="49.59" y="470.13" width="127.56" height="2.83" transform="translate(226.73 943.1) rotate(-180)"/><rect class="cls-3" x="49.61" y="574.49" width="127.56" height="35.34"/><rect class="cls-2" x="49.61" y="111.97" width="35.43" height="22.68"/><rect class="cls-2" x="97.8" y="111.97" width="79.37" height="2.83"/><rect class="cls-2" x="97.8" y="121.89" width="79.37" height="2.83"/><rect class="cls-2" x="97.8" y="131.81" width="79.37" height="2.83"/><rect class="cls-2" x="49.61" y="141.73" width="127.56" height="2.83"/><rect class="cls-2" x="49.61" y="151.65" width="127.56" height="2.83"/><rect class="cls-2" x="49.61" y="161.57" width="127.56" height="2.83"/><rect class="cls-2" x="49.61" y="171.5" width="127.56" height="2.83"/><rect class="cls-2" x="49.61" y="240.94" width="35.43" height="22.68"/><rect class="cls-2" x="97.8" y="240.94" width="79.37" height="2.83"/><rect class="cls-2" x="97.8" y="250.87" width="79.37" height="2.83"/><rect class="cls-2" x="97.8" y="260.79" width="79.37" height="2.83"/><rect class="cls-2" x="49.61" y="270.71" width="127.56" height="2.83"/><rect class="cls-2" x="49.61" y="280.63" width="127.56" height="2.83"/><rect class="cls-2" x="49.61" y="290.55" width="127.56" height="2.83"/><rect class="cls-2" x="49.61" y="300.47" width="127.56" height="2.83"/><rect class="cls-2" x="49.61" y="310.39" width="35.43" height="22.68"/><rect class="cls-2" x="97.8" y="310.39" width="79.37" height="2.83"/><rect class="cls-2" x="97.8" y="320.31" width="79.37" height="2.83"/><rect class="cls-2" x="97.8" y="330.24" width="79.37" height="2.83"/><rect class="cls-2" x="49.61" y="340.16" width="127.56" height="2.83"/><rect class="cls-2" x="49.61" y="350.08" width="127.56" height="2.83"/><rect class="cls-2" x="49.61" y="360" width="127.56" height="2.83"/><rect class="cls-2" x="49.61" y="369.92" width="127.56" height="2.83"/><rect class="cls-2" x="49.59" y="379.84" width="127.56" height="2.83"/><rect class="cls-2" x="49.59" y="389.76" width="127.56" height="2.83"/><rect class="cls-2" x="49.59" y="399.69" width="127.56" height="2.83"/><rect class="cls-2" x="49.59" y="409.61" width="127.56" height="2.83"/><rect class="cls-2" x="141.73" y="181.42" width="35.43" height="22.68" transform="translate(318.9 385.51) rotate(-180)"/><rect class="cls-2" x="49.61" y="181.42" width="79.37" height="2.83" transform="translate(178.58 365.67) rotate(-180)"/><rect class="cls-2" x="49.61" y="191.34" width="79.37" height="2.83" transform="translate(178.58 385.51) rotate(-180)"/><rect class="cls-2" x="49.61" y="201.26" width="79.37" height="2.83" transform="translate(178.58 405.35) rotate(-180)"/><rect class="cls-2" x="49.61" y="211.18" width="127.56" height="2.83" transform="translate(226.77 425.2) rotate(-180)"/><rect class="cls-2" x="49.61" y="221.1" width="127.56" height="2.83" transform="translate(226.77 445.04) rotate(-180)"/><rect class="cls-2" x="49.61" y="231.02" width="127.56" height="2.83" transform="translate(226.77 464.88) rotate(-180)"/><rect class="cls-2" x="49.62" y="419.53" width="127.56" height="2.83" transform="translate(226.81 841.89) rotate(-180)"/><rect class="cls-2" x="49.63" y="480.06" width="127.56" height="2.83"/><rect class="cls-2" x="49.62" y="489.98" width="127.56" height="2.83"/><rect class="cls-2" x="49.62" y="499.9" width="127.56" height="2.83"/><rect class="cls-2" x="49.62" y="509.82" width="127.56" height="2.83"/><rect class="cls-2" x="49.62" y="519.74" width="127.56" height="2.83"/><rect class="cls-3" x="49.61" y="42.52" width="127.56" height="59.53"/><path class="cls-1" d="M129.05,42.52a9.83,9.83,0,0,1,1.11,4.92c0,6.14-3.31,9.65-9.42,9.65a18.07,18.07,0,0,1-2.89-.17V42.52H115V59.18a44.77,44.77,0,0,0,5.19.27c4.3,0,7.72-1.15,9.79-3.28a12.18,12.18,0,0,0,3.18-8.83,12.75,12.75,0,0,0-.84-4.82Z"/><path class="cls-1" d="M103.34,42.52c.07.24.15.48.23.73l2.17,6.55H99.07l2.17-6.58c.07-.23.13-.47.2-.7H98.76L93.22,59.25h3l2.3-7.16h7.85l2.36,7.16h3l-5.55-16.73Z"/><rect class="cls-4" x="28.35" y="25.51" width="170.08" height="317.48" rx="14.5"/></g></g></svg>