<svg xmlns="http://www.w3.org/2000/svg" viewBox="0 0 226.77 625.08"><defs><style>.cls-1{fill:#fff;}.cls-2{fill:#9697a1;}.cls-3{fill:#ea5328;}.cls-4{fill:none;stroke:#1d1d1b;stroke-miterlimit:10;stroke-width:2px;}</style></defs><g id="Layer_2" data-name="Layer 2"><g id="Layer_1-2" data-name="Layer 1"><rect class="cls-1" width="226.77" height="625.08"/><rect class="cls-2" x="49.59" y="543.31" width="127.56" height="2.83"/><rect class="cls-2" x="49.59" y="553.23" width="127.56" height="2.83"/><rect class="cls-2" x="49.59" y="563.15" width="127.56" height="2.83"/><rect class="cls-2" x="49.59" y="573.07" width="127.56" height="2.83"/><rect class="cls-2" x="49.59" y="493.7" width="35.43" height="22.68"/><rect class="cls-2" x="97.78" y="493.7" width="79.37" height="2.83"/><rect class="cls-2" x="97.78" y="503.62" width="79.37" height="2.83"/><rect class="cls-2" x="97.78" y="513.54" width="79.37" height="2.83"/><rect class="cls-2" x="49.59" y="523.46" width="127.56" height="2.83"/><rect class="cls-2" x="49.59" y="533.39" width="127.56" height="2.83"/><rect class="cls-2" x="141.71" y="394.49" width="35.43" height="22.68" transform="translate(318.86 811.65) rotate(-180)"/><rect class="cls-2" x="49.59" y="394.49" width="79.37" height="2.83" transform="translate(178.55 791.81) rotate(-180)"/><rect class="cls-2" x="49.59" y="404.41" width="79.37" height="2.83" transform="translate(178.55 811.65) rotate(-180)"/><rect class="cls-2" x="49.59" y="414.33" width="79.37" height="2.83" transform="translate(178.55 831.5) rotate(-180)"/><rect class="cls-2" x="49.59" y="424.25" width="127.56" height="2.83" transform="translate(226.73 851.34) rotate(-180)"/><rect class="cls-2" x="49.59" y="434.17" width="127.56" height="2.83" transform="translate(226.73 871.18) rotate(-180)"/><rect class="cls-3" x="49.61" y="42.52" width="127.56" height="24.57"/><rect class="cls-3" x="49.61" y="586.77" width="127.56" height="22.68"/><rect class="cls-2" x="49.61" y="77.01" width="35.43" height="22.68"/><rect class="cls-2" x="97.8" y="77.01" width="79.37" height="2.83"/><rect class="cls-2" x="97.8" y="86.93" width="79.37" height="2.83"/><rect class="cls-2" x="97.8" y="96.85" width="79.37" height="2.83"/><rect class="cls-2" x="49.61" y="106.77" width="127.56" height="2.83"/><rect class="cls-2" x="49.61" y="116.69" width="127.56" height="2.83"/><rect class="cls-2" x="49.61" y="126.61" width="127.56" height="2.83"/><rect class="cls-2" x="49.61" y="136.54" width="127.56" height="2.83"/><rect class="cls-2" x="49.61" y="205.98" width="35.43" height="22.68"/><rect class="cls-2" x="97.8" y="205.98" width="79.37" height="2.83"/><rect class="cls-2" x="97.8" y="215.91" width="79.37" height="2.83"/><rect class="cls-2" x="97.8" y="225.83" width="79.37" height="2.83"/><rect class="cls-2" x="49.61" y="235.75" width="127.56" height="2.83"/><rect class="cls-2" x="49.61" y="245.67" width="127.56" height="2.83"/><rect class="cls-2" x="49.61" y="255.59" width="127.56" height="2.83"/><rect class="cls-2" x="49.61" y="265.51" width="127.56" height="2.83"/><rect class="cls-2" x="49.61" y="275.43" width="35.43" height="22.68"/><rect class="cls-2" x="97.8" y="275.43" width="79.37" height="2.83"/><rect class="cls-2" x="97.8" y="285.35" width="79.37" height="2.83"/><rect class="cls-2" x="97.8" y="295.28" width="79.37" height="2.83"/><rect class="cls-2" x="49.61" y="305.2" width="127.56" height="2.83"/><rect class="cls-2" x="49.61" y="315.12" width="127.56" height="2.83"/><rect class="cls-2" x="49.61" y="325.04" width="127.56" height="2.83"/><rect class="cls-2" x="49.61" y="334.96" width="127.56" height="2.83"/><rect class="cls-2" x="49.59" y="344.88" width="127.56" height="2.83"/><rect class="cls-2" x="49.59" y="354.8" width="127.56" height="2.83"/><rect class="cls-2" x="49.59" y="364.72" width="127.56" height="2.83"/><rect class="cls-2" x="49.59" y="374.65" width="127.56" height="2.83"/><rect class="cls-2" x="141.73" y="146.46" width="35.43" height="22.68" transform="translate(318.9 315.59) rotate(-180)"/><rect class="cls-2" x="49.61" y="146.46" width="79.37" height="2.83" transform="translate(178.58 295.75) rotate(-180)"/><rect class="cls-2" x="49.61" y="156.38" width="79.37" height="2.83" transform="translate(178.58 315.59) rotate(-180)"/><rect class="cls-2" x="49.61" y="166.3" width="79.37" height="2.83" transform="translate(178.58 335.43) rotate(-180)"/><rect class="cls-2" x="49.61" y="176.22" width="127.56" height="2.83" transform="translate(226.77 355.28) rotate(-180)"/><rect class="cls-2" x="49.61" y="186.14" width="127.56" height="2.83" transform="translate(226.77 375.12) rotate(-180)"/><rect class="cls-2" x="49.61" y="196.06" width="127.56" height="2.83" transform="translate(226.77 394.96) rotate(-180)"/><rect class="cls-2" x="49.62" y="384.57" width="127.56" height="2.83" transform="translate(226.81 771.97) rotate(-180)"/><rect class="cls-2" x="49.63" y="444.09" width="127.56" height="2.83"/><rect class="cls-2" x="49.62" y="454.02" width="127.56" height="2.83"/><rect class="cls-2" x="49.62" y="463.94" width="127.56" height="2.83"/><rect class="cls-2" x="49.62" y="473.86" width="127.56" height="2.83"/><rect class="cls-2" x="49.62" y="483.78" width="127.56" height="2.83"/><rect class="cls-4" x="28.35" y="25.51" width="170.08" height="317.48" rx="14.5"/></g></g></svg>