<svg xmlns="http://www.w3.org/2000/svg" viewBox="0 0 226.77 625.08"><defs><style>.cls-1,.cls-3{fill:#fff;}.cls-2{fill:#ea5328;}.cls-3{font-size:33.74px;font-family:MyriadPro-Regular, Myriad Pro;}.cls-4{fill:#9697a1;}.cls-5{fill:none;stroke:#1d1d1b;stroke-miterlimit:10;stroke-width:2px;}</style></defs><g id="Layer_2" data-name="Layer 2"><g id="Layer_1-2" data-name="Layer 1"><rect class="cls-1" width="226.77" height="625.08"/><rect class="cls-2" x="49.61" y="42.52" width="127.56" height="106.3"/><text class="cls-3" transform="translate(92.4 106.02) scale(0.97 1)">AD</text><rect class="cls-2" x="49.61" y="432.28" width="127.56" height="106.3"/><text class="cls-3" transform="translate(92.4 495.78) scale(0.97 1)">AD</text><rect class="cls-4" x="49.61" y="158.74" width="35.43" height="22.68"/><rect class="cls-5" x="28.35" y="25.51" width="170.08" height="317.48" rx="14.5"/><rect class="cls-4" x="97.8" y="158.74" width="79.37" height="2.83"/><rect class="cls-4" x="97.8" y="168.66" width="79.37" height="2.83"/><rect class="cls-4" x="97.8" y="178.58" width="79.37" height="2.83"/><rect class="cls-4" x="49.61" y="188.5" width="127.56" height="2.83"/><rect class="cls-4" x="49.61" y="198.43" width="127.56" height="2.83"/><rect class="cls-4" x="49.61" y="208.35" width="127.56" height="2.83"/><rect class="cls-4" x="49.61" y="218.27" width="127.56" height="2.83"/><rect class="cls-4" x="49.61" y="287.72" width="35.43" height="22.68"/><rect class="cls-4" x="97.8" y="287.72" width="79.37" height="2.83"/><rect class="cls-4" x="97.8" y="297.64" width="79.37" height="2.83"/><rect class="cls-4" x="97.8" y="307.56" width="79.37" height="2.83"/><rect class="cls-4" x="49.61" y="317.48" width="127.56" height="2.83"/><rect class="cls-4" x="49.61" y="327.4" width="127.56" height="2.83"/><rect class="cls-4" x="49.61" y="337.32" width="127.56" height="2.83"/><rect class="cls-4" x="49.61" y="347.24" width="127.56" height="2.83"/><rect class="cls-4" x="49.61" y="357.17" width="35.43" height="22.68"/><rect class="cls-4" x="97.8" y="357.17" width="79.37" height="2.83"/><rect class="cls-4" x="97.8" y="367.09" width="79.37" height="2.83"/><rect class="cls-4" x="97.8" y="377.01" width="79.37" height="2.83"/><rect class="cls-4" x="49.61" y="386.93" width="127.56" height="2.83"/><rect class="cls-4" x="49.61" y="396.85" width="127.56" height="2.83"/><rect class="cls-4" x="49.61" y="406.77" width="127.56" height="2.83"/><rect class="cls-4" x="49.61" y="416.69" width="127.56" height="2.83"/><rect class="cls-4" x="49.61" y="548.5" width="127.56" height="2.83"/><rect class="cls-4" x="49.61" y="558.43" width="127.56" height="2.83"/><rect class="cls-4" x="49.61" y="568.35" width="127.56" height="2.83"/><rect class="cls-4" x="49.61" y="578.27" width="127.56" height="2.83"/><rect class="cls-4" x="141.73" y="228.19" width="35.43" height="22.68" transform="translate(318.9 479.06) rotate(-180)"/><rect class="cls-4" x="49.61" y="228.19" width="79.37" height="2.83" transform="translate(178.58 459.21) rotate(-180)"/><rect class="cls-4" x="49.61" y="238.11" width="79.37" height="2.83" transform="translate(178.58 479.06) rotate(-180)"/><rect class="cls-4" x="49.61" y="248.03" width="79.37" height="2.83" transform="translate(178.58 498.9) rotate(-180)"/><rect class="cls-4" x="49.61" y="257.95" width="127.56" height="2.83" transform="translate(226.77 518.74) rotate(-180)"/><rect class="cls-4" x="49.61" y="267.87" width="127.56" height="2.83" transform="translate(226.77 538.58) rotate(-180)"/><rect class="cls-4" x="49.61" y="277.8" width="127.56" height="2.83" transform="translate(226.77 558.43) rotate(-180)"/><rect class="cls-4" x="141.76" y="598.11" width="35.43" height="11.34" transform="translate(318.94 1207.56) rotate(-180)"/><rect class="cls-4" x="49.63" y="598.11" width="79.37" height="2.83" transform="translate(178.63 1199.06) rotate(-180)"/><rect class="cls-4" x="49.63" y="608.03" width="79.37" height="1.42" transform="translate(178.63 1217.48) rotate(-180)"/><rect class="cls-4" x="49.64" y="588.19" width="127.56" height="2.83" transform="translate(226.85 1179.21) rotate(-180)"/></g></g></svg>