<svg xmlns="http://www.w3.org/2000/svg" viewBox="0 0 311.11 63.61"><defs><style>.cls-1{fill:#464d53;}.cls-2{fill:#00cf6f;fill-rule:evenodd;}</style></defs><g id="Layer_2" data-name="Layer 2"><g id="Layer_1-2" data-name="Layer 1"><path class="cls-1" d="M6.76,36.43V56.6H0V11.52H10.06a31.19,31.19,0,0,1,6.87.58A10.85,10.85,0,0,1,21.1,14a10.81,10.81,0,0,1,3.18,4.22,14.27,14.27,0,0,1,1.12,5.67q0,5.41-2.58,8.48a11.26,11.26,0,0,1-7.6,3.68L30.49,56.6H22.34L7.58,36.43Zm.45-5.7H8.52q5.73,0,7.6-1.35c1.26-.91,1.88-2.51,1.88-4.81q0-3.72-2-5.25T8.52,17.8H7.21Z"/><path class="cls-1" d="M58,41.56H35.35a10.21,10.21,0,0,0,2.36,6.49,7.26,7.26,0,0,0,5.64,2.33A9.26,9.26,0,0,0,48.57,49a11.09,11.09,0,0,0,3.64-4.44l5.46,3.19a17.06,17.06,0,0,1-5.9,6.66A15.36,15.36,0,0,1,43.5,56.6q-6.81,0-10.83-4.35t-4-11.59A16.18,16.18,0,0,1,32.8,29.21a14,14,0,0,1,10.7-4.49q6.84,0,10.65,4.09T58,40.28ZM51.26,37a7.34,7.34,0,0,0-2.33-4.86,7.88,7.88,0,0,0-5.31-1.67,7.68,7.68,0,0,0-5.13,1.63A8.75,8.75,0,0,0,35.77,37Z"/><path class="cls-1" d="M111.53,41.56H88.91a10.15,10.15,0,0,0,2.36,6.49,7.26,7.26,0,0,0,5.64,2.33A9.29,9.29,0,0,0,102.13,49a11.17,11.17,0,0,0,3.64-4.44l5.46,3.19a17,17,0,0,1-5.91,6.66,15.32,15.32,0,0,1-8.26,2.19q-6.81,0-10.84-4.35t-4-11.59a16.14,16.14,0,0,1,4.17-11.45,13.94,13.94,0,0,1,10.7-4.49q6.82,0,10.65,4.09t3.82,11.47ZM104.81,37a7.29,7.29,0,0,0-2.32-4.86,7.92,7.92,0,0,0-5.32-1.67A7.7,7.7,0,0,0,92,32.1,8.75,8.75,0,0,0,89.33,37Z"/><path class="cls-1" d="M200.42,41.56H177.8a10.15,10.15,0,0,0,2.36,6.49,7.25,7.25,0,0,0,5.63,2.33A9.32,9.32,0,0,0,191,49a11.17,11.17,0,0,0,3.64-4.44l5.46,3.19a17,17,0,0,1-5.91,6.66,15.33,15.33,0,0,1-8.27,2.19q-6.8,0-10.83-4.35t-4-11.59a16.14,16.14,0,0,1,4.17-11.45,13.93,13.93,0,0,1,10.69-4.49q6.84,0,10.66,4.09t3.82,11.47ZM193.7,37a7.33,7.33,0,0,0-2.32-4.86,7.92,7.92,0,0,0-5.32-1.67,7.68,7.68,0,0,0-5.13,1.63,8.75,8.75,0,0,0-2.71,4.9Z"/><path class="cls-1" d="M70.17,56.6,54.64,25.19h7.41L68.51,40.1a18.25,18.25,0,0,1,.75,2.06c.3.92.6,2,.91,3.28.21-.9.45-1.79.73-2.67a26.52,26.52,0,0,1,1-2.67l6.44-14.91h7.37Z"/><path class="cls-1" d="M114.2,56.6V27h5.72v4.84a10.88,10.88,0,0,1,10.27-5.87,11.16,11.16,0,0,1,5.06,1,7.58,7.58,0,0,1,3.26,3.11,9.33,9.33,0,0,1,1,2.84,36.24,36.24,0,0,1,.3,5.69v18h-6.13V41.38q0-5.85-1.27-7.77t-4.52-1.92a8.09,8.09,0,0,0-3.8.87A6.63,6.63,0,0,0,121.48,35a7.23,7.23,0,0,0-.93,2.74,37.16,37.16,0,0,0-.27,5.33V56.6Z"/><path class="cls-1" d="M149.49,25.75V42.44c0,2.87.52,4.94,1.57,6.19s2.75,1.87,5.11,1.87,4.07-.62,5.12-1.87,1.57-3.32,1.57-6.19V25.75h6V40.41q0,8.51-3,12.34t-9.62,3.85q-6.72,0-9.73-3.82t-3-12.37V25.75Z"/><path id="path1" class="cls-2" d="M271.65.08C255,15.89,239,12.93,219.41,14.57c-4.78.81-10.27,1.65-13.27,5.25-.74,1.47-2.68,3.24-1.25,4.9,2.26,3.17,5.67-.56,7.91-1.78,4.78-2.39,11.17-4.85,16-3.5-.35,2.89-2.17,4.1-4,6.74a17.55,17.55,0,0,1-2.61,3.6c-1.7,2.36-5.87,3-8.26,4.53C210.13,36.82,201.48,43,204.73,48c1,.49,1.23,1.22,3,1.16,2,.13,2.7.76,1.89,1.79-2,4.24-4.31,12.48,2.74,12.56,4.16.56,3.45-2.83,4.15-5.78A77.59,77.59,0,0,1,219,49.26a81.83,81.83,0,0,1,6.15-11.94c1.6-2.39,1.12-3.11,5.53-3.57s7.32.67,10.32,2.13c2-.81,3-5,1.89-6.7s-4.64-2-6.78-1.4c-3.69.91-5.21.34-1.73-3.19A28.24,28.24,0,0,0,238,20.23c2.43-2.13,7.27-.61,11.79-1.49,2.26-.18,2.69.46,1.45,2.19a63.27,63.27,0,0,0-6.7,12.23c-1.52,3.55-2.2,7.36-3.42,11.05-2.33,7.85.09,15.53,7.15,13.06,1.08.44,4.43-3.25,6.86-3.77,5.64,12.26,22.86-.89,20.54,4-1.22,2.92,5.64,1.46,7-.38,2.47-2.9,3.58-6.61,6.07-9.55.76-1.47,2.2-1.19,2.2.42a21.42,21.42,0,0,0,1.1,4.45c.5,3.21,4.29,6.94,6.54,3.72,1.23-3.23-1.86-9.53-2-13.14-1.17-4-.07-4.79,2.49-6,2.56-2,7.39-3.42,9.5-.75,3.12-1.17,4-9.3-.55-9.41-3.46.35-6.39,2.47-9.09,4.23-5.3,4.21-.46-4.17-6.92-4.25-2.67-.79-.73,11.95-3.54,12.83-6,6.44-10.41,13.78-20.07,14.32-12,.76-3.18-13.59.94-16.83,2.64-2.47,7.86-2.76,4.71.59a11.2,11.2,0,0,1-4.74,2.69c-3.85.54-2.7,2.14-.84,3.39.85.65,3.23.35,4.22-.34,4.61-2.08,11.16-9.33,8.16-14.16-5.5-6.6-16.86,3.07-20.57,8A30.9,30.9,0,0,0,255.83,45a3.61,3.61,0,0,1-2,2.84,16.76,16.76,0,0,1-2.65,1.88c-14.09,6.67,2.37-22,5.83-24.76,4.21-4.81,8.07-8.17,13.08-10.29,2.67-.91-.34-3.08,2.59-5,2.14-2.07,2.87-5.78,1-8.3-.63-.85-1.22-1.68-2-1.34m8.24,2.56c-2,.87-1.51,5.56,1,5.2,4.46,0,7.06,1.17,5.17,2.32A35.24,35.24,0,0,0,282.57,13c-2,1.88-6.63,3.94-4.14,6.7,2.83,7,14.27-11.75,13.05-2.85-.87,5.06-.5,6.13,2.17,6.27,2.34.12,2.9-.65,3.1-4.25.3-4.58,1-6.9,1.15-11.2.55-5.7-2.85-3.51-9.17-4.63-2.8.1-6.82-1.31-8.84-.4M216.17,38.37c0,.58,0,.76-.32,1.07-.68.91-.93,1.69-1.62,2.68-3.72,6.17-11.66,3.44-3.77-1.95a13.91,13.91,0,0,1,4-2.16c1-.18,1.43-1.09,1.75.36"/></g></g></svg>